<?xml version="1.0" encoding="UTF-8"?>
<svg width="32" height="32" viewBox="0 0 32 32" xmlns="http://www.w3.org/2000/svg">
  <rect width="32" height="32" rx="4" fill="#1a365d"/>
  <path d="M16 6C10.48 6 6 10.48 6 16s4.48 10 10 10 10-4.48 10-10S21.52 6 16 6zm0 18c-4.41 0-8-3.59-8-8s3.59-8 8-8 8 3.59 8 8-3.59 8-8 8z" fill="#e2e8f0"/>
  <path d="M16 10c-3.31 0-6 2.69-6 6s2.69 6 6 6 6-2.69 6-6-2.69-6-6-6zm0 10c-2.21 0-4-1.79-4-4s1.79-4 4-4 4 1.79 4 4-1.79 4-4 4z" fill="#e2e8f0"/>
  <path d="M16 13c-1.66 0-3 1.34-3 3s1.34 3 3 3 3-1.34 3-3-1.34-3-3-3z" fill="#4299e1"/>
  <path d="M16 8v2c2.21 0 4 1.79 4 4h2c0-3.31-2.69-6-6-6z" fill="#e2e8f0"/>
  <path d="M16 22v2c3.31 0 6-2.69 6-6h-2c0 2.21-1.79 4-4 4z" fill="#e2e8f0"/>
  <path d="M10 16c0-3.31 2.69-6 6-6v2c-2.21 0-4 1.79-4 4h-2z" fill="#e2e8f0"/>
  <path d="M16 22c2.21 0 4-1.79 4-4h2c0 3.31-2.69 6-6 6v-2z" fill="#e2e8f0"/>
</svg>
